<?xml version="1.0" encoding="utf-8"?>
<!-- Generator: Adobe Illustrator 28.0.0, SVG Export Plug-In . SVG Version: 6.00 Build 0)  -->
<svg version="1.1" id="Ebene_1" xmlns="http://www.w3.org/2000/svg" xmlns:xlink="http://www.w3.org/1999/xlink" x="0px" y="0px"
	 viewBox="0 0 100 50" style="enable-background:new 0 0 100 50;" xml:space="preserve">
<style type="text/css">
	.st0{fill:none;stroke:#4250AF;stroke-width:2.5;stroke-miterlimit:10;}
	.st1{fill:none;stroke:#4250AF;stroke-width:2.5;stroke-linecap:round;stroke-linejoin:round;stroke-miterlimit:10;}
</style>
<g>
	<path class="st0" d="M32.85,22.27c-0.32,3.35,2.29,7.3,5.89,6.19c4.77-1.48,5.69-7.57,2.17-10.64c-3.7-3.24-7.98,0.16-8.06,4.38
		L32.85,22.27z"/>
	<path class="st1" d="M34.16,19.39c2.49,1.72,5.66,3.19,8.64,2c1.66-0.67,2.92-1.16,4.18-2.25c0.59-0.54,1-1.31,0.39,0.05
		c-0.74,1.39-0.44,4.61,0.62,5.79c1.09,1.21,2.67,0.95,3.94,0.38c0.95-0.43,1.46-1.22,1.9-1.97c0.73-1.24,0.95-3.52,1.13-4.97
		c0.22-1.76-0.16-0.86-0.35,0.18c-0.35,1.42-0.12,3.04,0.48,4.3c1.14,1.93,4.45,1.06,5.84-0.13c0.93-0.8,1.94-2.86,2.05-3.84
		c0.1-0.89,0.05-2.72-0.11-3.54c0.24,1.21-0.43,4.65,0.33,5.85c1.22,1.93,3.88,1.49,5.39,0.35c1.07-0.81,2.83-2.92,3.8-4.58
		c0.49-0.83,1.26-2.06,1.74-3.62c0.16-0.49,0.53-1.75,1.11-1.04c0.64,0.79,1.46,1.21,2.58,1.68c1.46,0.77,2.96,1.28,4.46,2.11
		c2.09,1.17-5.31,5.17-5.92,5.8"/>
	<line class="st1" x1="62.48" y1="11.08" x2="62.51" y2="11.28"/>
	<path class="st1" d="M23.9,1.79c0,0-2.72,34.06-8.75,45.93c-1.03,2.02,4.05-2.87,14.79-5.64c6.66-1.72,39.42-9.16,54.92-11.43
		c2.01-0.29-2.01,2.23-9.54,4.11c-7.75,1.93-13.88,4.56-13.88,4.56l3.71,0.63"/>
</g>
</svg>
